<?xml version="1.0" encoding="utf-8"?>
<svg width="300px" height="300px" viewBox="0 0 300 300" version="1.1" xmlns:xlink="http://www.w3.org/1999/xlink" xmlns="http://www.w3.org/2000/svg">
  <defs>
    <linearGradient gradientUnits="objectBoundingBox" x1="0" y1="0" x2="1" y2="0" id="gradient_1">
      <stop offset="0%" stop-color="#E98E0D" />
      <stop offset="100%" stop-color="#1536F1" />
    </linearGradient>
    <path d="M300 0L300 0L300 300L0 300L0 0L300 0Z" id="path_1" />
    <path d="M300 0L300 0L300 300L0 300L0 0L300 0L300 0Z" id="path_2" />
    <clipPath id="clip_1">
      <use xlink:href="#path_1" clip-rule="evenodd" fill-rule="evenodd" />
    </clipPath>
    <clipPath id="clip_2">
      <use xlink:href="#path_2" clip-rule="evenodd" fill-rule="evenodd" />
    </clipPath>
  </defs>
  <g id="logo" clip-path="url(#clip_1)">
    <path d="M300 0L300 0L300 300L0 300L0 0L300 0Z" id="logo" fill="none" stroke="none" />
    <g id="Mask-Group">
      <path d="M300 0L300 0L300 300L0 300L0 0L300 0L300 0Z" id="path_1" fill="none" fill-rule="evenodd" stroke="none" />
      <g clip-path="url(#clip_2)">
        <g id="default">
          <path d="M300 0L300 0L300 300L0 300L0 0L300 0L300 0Z" id="default#1" fill="none" stroke="none" />
          <path d="M0 0L300 0L300 300L0 300L0 0L0 0Z" id="Rectangle" fill="#FFFFFF" fill-opacity="0" fill-rule="evenodd" stroke="none" />
          <path d="M68.8018 172.335L55.3696 172.335C55.0467 172.27 54.4655 172.593 54.4655 171.883C54.4655 171.301 54.9821 171.495 55.305 171.495C55.6925 171.431 56.08 171.495 56.4674 171.495C58.986 171.495 60.1484 170.656 60.9233 168.266C61.1171 167.75 61.2462 167.168 61.2462 166.587C61.2462 166.071 61.5045 165.812 62.0211 165.812L76.0346 165.812C76.4866 165.812 76.6804 166.006 76.745 166.393C76.9387 167.491 77.1324 168.525 77.7136 169.558C78.3594 170.785 79.3927 171.366 80.7488 171.431L82.6216 171.431C82.9445 171.431 83.2028 171.431 83.2028 171.883C83.2028 172.27 82.9445 172.335 82.6216 172.335L68.8018 172.335L68.8018 172.335L68.8018 172.335ZM68.6081 127.647L95.6018 127.647C96.8933 127.647 97.2808 128.034 97.2808 129.326L97.2808 163.229C97.2808 164.65 96.8933 165.037 95.4726 165.037L41.8082 165.037C40.3875 165.037 40 164.65 40 163.229L40 129.326C40 127.905 40.2583 127.647 41.679 127.647L68.6081 127.647L68.6081 127.647L68.6081 127.647ZM68.479 130.359L43.4226 130.359C42.6477 130.359 42.3894 130.553 42.3894 131.392L42.3894 157.159C42.3894 157.998 42.6477 158.192 43.4226 158.192L93.3416 158.192C94.1165 158.192 94.3748 157.998 94.3748 157.159L94.3748 131.392C94.3748 130.553 94.1165 130.359 93.3416 130.359L68.479 130.359L68.479 130.359L68.479 130.359ZM66.2833 152.638C64.7334 152.638 64.7334 152.638 65.1209 151.088C66.477 146.374 67.8332 141.725 69.1893 137.01C69.3831 136.365 69.5768 136.106 70.3517 136.106C72.5474 136.171 72.5474 136.171 71.9016 138.302C70.61 142.629 69.3831 146.955 68.0915 151.282C67.704 152.638 67.704 152.638 66.2833 152.638L66.2833 152.638L66.2833 152.638ZM58.7922 144.566C60.2775 145.147 61.6983 145.793 63.1836 146.31C63.8939 146.568 64.2168 146.891 64.1522 147.666C64.0876 149.345 64.1522 149.345 62.6023 148.699L56.0154 145.987C54.7884 145.47 54.7884 145.47 54.7884 144.179C54.7884 143.727 54.9175 143.468 55.3696 143.274C58.0819 142.177 60.7942 141.014 63.5064 139.916C63.9585 139.723 64.0876 139.787 64.1522 140.304C64.2814 142.241 64.2814 142.241 62.5378 142.952C61.3108 143.404 60.1484 143.92 58.9214 144.437C58.8568 144.372 58.8568 144.437 58.7922 144.566L58.7922 144.566L58.7922 144.566ZM78.5531 144.501C77.197 143.92 75.97 143.404 74.8076 142.952C74.743 142.952 74.6785 142.952 74.6139 142.887C73.1932 142.306 72.8057 141.595 73.1286 140.046C73.2577 139.529 73.4515 139.787 73.7098 139.916C75.3242 140.562 76.9387 141.273 78.5531 141.918C79.5864 142.37 80.6196 142.822 81.6529 143.21C82.4278 143.468 82.2341 144.114 82.2987 144.631C82.3633 145.147 82.2341 145.47 81.6529 145.728C79.0698 146.762 76.5512 147.86 73.9681 148.893C73.1286 149.28 73.1932 149.216 73.064 148.312C72.9349 147.149 73.2577 146.439 74.4847 146.116C75.8409 145.728 77.0679 145.147 78.5531 144.501L78.5531 144.501L78.5531 144.501Z" id="logo1" fill="url(#gradient_1)" fill-rule="evenodd" stroke="none" />
        </g>
      </g>
    </g>
  </g>
</svg>